<?xml version="1.0" encoding="UTF-8" standalone="no"?>
<svg
   xmlns:dc="http://purl.org/dc/elements/1.1/"
   xmlns:cc="http://creativecommons.org/ns#"
   xmlns:rdf="http://www.w3.org/1999/02/22-rdf-syntax-ns#"
   xmlns:svg="http://www.w3.org/2000/svg"
   xmlns="http://www.w3.org/2000/svg"
   id="svg838"
   version="1.1"
   viewBox="0 0 5.6444443 5.6444443"
   height="16pt"
   width="16pt">
  <defs
     id="defs832" />
  <metadata
     id="metadata835">
    <rdf:RDF>
      <cc:Work
         rdf:about="">
        <dc:format>image/svg+xml</dc:format>
        <dc:type
           rdf:resource="http://purl.org/dc/dcmitype/StillImage" />
        <dc:title></dc:title>
      </cc:Work>
    </rdf:RDF>
  </metadata>
  <g
     transform="translate(-71.439453,-126.98837)"
     id="layer1">
    <path
       id="rect1383"
       d="m 72.457328,127.76283 c -0.455862,0 -0.828,0.3723 -0.828,0.82817 v 2.43936 c 0,0.45586 0.372138,0.828 0.828,0.828 h 3.608692 c 0.455864,0 0.828002,-0.37214 0.828002,-0.828 V 128.591 c 0,-0.45587 -0.372138,-0.82817 -0.828002,-0.82817 z m 0,0.33487 h 3.608692 c 0.276142,0 0.493139,0.21715 0.493139,0.4933 v 2.43936 c 0,0.27615 -0.216997,0.49315 -0.493139,0.49315 h -3.608692 c -0.276141,0 -0.493137,-0.217 -0.493137,-0.49315 V 128.591 c 0,-0.27615 0.216996,-0.4933 0.493137,-0.4933 z"
       style="color:#000000;fill:#000000;" />
    <path
       id="path1387"
       d="m 74.570189,128.86533 a 0.30851483,0.30851483 0 0 1 -0.308515,0.30852 0.30851483,0.30851483 0 0 1 -0.308515,-0.30852 0.30851483,0.30851483 0 0 1 0.308515,-0.30852 0.30851483,0.30851483 0 0 1 0.308515,0.30852 z"
       style="color:#000000;fill:#000000;" />
    <path
       id="circle1389"
       d="m 76.086203,130.73756 a 0.30851483,0.30851483 0 0 1 -0.308516,0.30851 0.30851483,0.30851483 0 0 1 -0.308515,-0.30851 0.30851483,0.30851483 0 0 1 0.308515,-0.30852 0.30851483,0.30851483 0 0 1 0.308516,0.30852 z"
       style="color:#000000;fill:#000000;" />
    <path
       id="circle1391"
       d="m 73.087736,130.73756 a 0.30851483,0.30851483 0 0 1 -0.308515,0.30851 0.30851483,0.30851483 0 0 1 -0.308514,-0.30851 0.30851483,0.30851483 0 0 1 0.308514,-0.30852 0.30851483,0.30851483 0 0 1 0.308515,0.30852 z"
       style="color:#000000;fill:#000000;" />
    <path
       id="circle1399"
       d="m 74.261674,128.24093 c -0.343837,0 -0.624434,0.28059 -0.624434,0.62443 0,0.34384 0.280597,0.62427 0.624434,0.62427 0.343837,0 0.624435,-0.28043 0.624433,-0.62427 0,-0.34384 -0.280596,-0.62443 -0.624433,-0.62443 z m 0,0.16743 c 0.25335,0 0.457001,0.20365 0.457001,0.457 2e-6,0.25335 -0.203651,0.45684 -0.457001,0.45684 -0.253351,0 -0.457002,-0.20349 -0.457002,-0.45684 0,-0.25335 0.203651,-0.457 0.457002,-0.457 z"
       style="color:#000000;fill:#000000;" />
    <path
       id="circle1401"
       d="m 72.779295,130.11326 c -0.343836,0 -0.624433,0.28043 -0.624433,0.62426 0,0.34384 0.280597,0.62443 0.624433,0.62443 0.343838,0 0.624272,-0.28059 0.624272,-0.62443 0,-0.34383 -0.280434,-0.62426 -0.624272,-0.62426 z m 0,0.16742 c 0.253351,0 0.45684,0.20349 0.45684,0.45684 0,0.25334 -0.203489,0.45701 -0.45684,0.45701 -0.25335,0 -0.457001,-0.20367 -0.457001,-0.45701 0,-0.25335 0.203651,-0.45684 0.457001,-0.45684 z"
       style="color:#000000;fill:#000000;" />
    <path
       id="circle1403"
       d="m 75.777611,130.11326 c -0.343836,0 -0.62427,0.28043 -0.62427,0.62426 0,0.34384 0.280434,0.62443 0.62427,0.62443 0.343838,0 0.624435,-0.28059 0.624435,-0.62443 0,-0.34383 -0.280597,-0.62426 -0.624435,-0.62426 z m 0,0.16742 c 0.253351,0 0.457003,0.20349 0.457003,0.45684 0,0.25334 -0.203652,0.45701 -0.457003,0.45701 -0.253349,0 -0.456838,-0.20367 -0.456838,-0.45701 0,-0.25335 0.203489,-0.45684 0.456838,-0.45684 z"
       style="color:#000000;fill:#000000;" />
  </g>
</svg>
